<svg xmlns="http://www.w3.org/2000/svg" xmlns:xlink="http://www.w3.org/1999/xlink" width="603" height="419" viewBox="0 0 603 419">
  <defs>
    <filter id="Ellipse_5" x="12" y="12" width="410" height="407" filterUnits="userSpaceOnUse">
      <feOffset dx="6" dy="6" input="SourceAlpha"/>
      <feGaussianBlur stdDeviation="7" result="blur"/>
      <feFlood flood-opacity="0.161"/>
      <feComposite operator="in" in2="blur"/>
      <feComposite in="SourceGraphic"/>
    </filter>
    <filter id="Path_88" x="0" y="0" width="410" height="407" filterUnits="userSpaceOnUse">
      <feOffset dx="-6" dy="-6" input="SourceAlpha"/>
      <feGaussianBlur stdDeviation="7" result="blur-2"/>
      <feFlood flood-color="#f6f6f6"/>
      <feComposite operator="in" in2="blur-2"/>
      <feComposite in="SourceGraphic"/>
    </filter>
  </defs>
  <g id="Group_33" data-name="Group 33" transform="translate(-158 -881)">
    <text id="Marketing" transform="translate(659 1040)" font-size="20" font-family="Poppins-Medium, Poppins" font-weight="500"><tspan x="0" y="0">Marketing</tspan></text>
    <text id="Finance" transform="translate(659 1074)" font-size="20" font-family="Poppins-Medium, Poppins" font-weight="500"><tspan x="0" y="0">Finance</tspan></text>
    <text id="OSCM" transform="translate(659 1110)" font-size="20" font-family="Poppins-Medium, Poppins" font-weight="500"><tspan x="0" y="0">OSCM</tspan></text>
    <text id="HRM" transform="translate(659 1146)" font-size="20" font-family="Poppins-Medium, Poppins" font-weight="500"><tspan x="0" y="0">HRM</tspan></text>
    <g id="Component_1_4" data-name="Component 1 – 4" transform="translate(185 908)">
      <g transform="matrix(1, 0, 0, 1, -27, -27)" filter="url(#Ellipse_5)">
        <ellipse id="Ellipse_5-2" data-name="Ellipse 5" cx="184" cy="182.5" rx="184" ry="182.5" transform="translate(27 27)" fill="#e6eaee"/>
      </g>
      <g transform="matrix(1, 0, 0, 1, -27, -27)" filter="url(#Path_88)">
        <path id="Path_88-2" data-name="Path 88" d="M184,0C285.62,0,368,81.708,368,182.5S285.62,365,184,365,0,283.292,0,182.5,82.38,0,184,0Z" transform="translate(27 27)" fill="#fff"/>
      </g>
    </g>
    <ellipse id="Ellipse_7" data-name="Ellipse 7" cx="9.5" cy="10" rx="9.5" ry="10" transform="translate(633 1023)" fill="#007ab0"/>
    <circle id="Ellipse_8" data-name="Ellipse 8" cx="9.5" cy="9.5" r="9.5" transform="translate(633 1059)" fill="#00ada1"/>
    <ellipse id="Ellipse_9" data-name="Ellipse 9" cx="9.5" cy="10" rx="9.5" ry="10" transform="translate(633 1094)" fill="#3a1c55"/>
    <ellipse id="Ellipse_16" data-name="Ellipse 16" cx="9.5" cy="10" rx="9.5" ry="10" transform="translate(633 1130)" fill="#b36fa8"/>
    <text id="_63_" data-name="63%" transform="translate(278 1179)" fill="#007ab0" font-size="28" font-family="Poppins-Medium, Poppins" font-weight="500"><tspan x="0" y="0">63%</tspan></text>
    <text id="_4_" data-name="4%" transform="translate(349 988)" fill="#b36fa8" font-size="28" font-family="Poppins-Medium, Poppins" font-weight="500"><tspan x="0" y="0">4%</tspan></text>
    <text id="_2_" data-name="2%" transform="translate(305 1003)" fill="#3a1c55" font-size="28" font-family="Poppins-Medium, Poppins" font-weight="500"><tspan x="0" y="0">2%</tspan></text>
    <text id="_31_" data-name="31%" transform="translate(432 1049)" fill="#00ada1" font-size="28" font-family="Poppins-Medium, Poppins" font-weight="500"><tspan x="0" y="0">31%</tspan></text>
    <path id="Path_90" data-name="Path 90" d="M175.44.88V45.76a130.7,130.7,0,0,0-33.78,4.44L130.04,6.85A173.553,173.553,0,0,1,175.44.88" transform="translate(193.585 914.208)" fill="#b36fa8"/>
    <path id="Path_92" data-name="Path 92" d="M141.66,50.2a129.517,129.517,0,0,0-15.12,5.05l-16.81-41.6a161.9,161.9,0,0,1,20.31-6.8Z" transform="translate(193.585 914.208)" fill="#3a1c55"/>
    <path id="Path_94" data-name="Path 94" d="M339.18,239.12A175.39,175.39,0,1,1,11.7,113.41c18.05-47.02,51.33-80.89,98.03-99.76l16.81,41.6A131.024,131.024,0,1,0,298.07,223.34Z" transform="translate(193.585 914.208)" fill="#007ab0"/>
    <path id="Path_96" data-name="Path 96" d="M350.83,176.27c0,23.24-3.32,41.15-11.65,62.85l-41.11-15.78A131.092,131.092,0,0,0,175.94,45.76h-.5V.88A175.39,175.39,0,0,1,350.83,176.27" transform="translate(193.585 914.208)" fill="#00ada1"/>
  </g>
</svg>
