<svg xmlns="http://www.w3.org/2000/svg" xmlns:xlink="http://www.w3.org/1999/xlink" width="344" height="337" viewBox="0 0 344 337">
  <defs>
    <filter id="Rectangle_18" x="220" y="12" width="124" height="299" filterUnits="userSpaceOnUse">
      <feOffset dx="6" dy="6" input="SourceAlpha"/>
      <feGaussianBlur stdDeviation="7" result="blur"/>
      <feFlood flood-opacity="0.161"/>
      <feComposite operator="in" in2="blur"/>
      <feComposite in="SourceGraphic"/>
    </filter>
    <filter id="Rectangle_20" x="208" y="0" width="124" height="299" filterUnits="userSpaceOnUse">
      <feOffset dx="-6" dy="-6" input="SourceAlpha"/>
      <feGaussianBlur stdDeviation="7" result="blur-2"/>
      <feFlood flood-color="#fff"/>
      <feComposite operator="in" in2="blur-2"/>
      <feComposite in="SourceGraphic"/>
    </filter>
    <filter id="Rectangle_19">
      <feOffset dx="6" dy="6" input="SourceAlpha"/>
      <feGaussianBlur stdDeviation="7" result="blur-3"/>
      <feFlood flood-opacity="0.161" result="color"/>
      <feComposite operator="out" in="SourceGraphic" in2="blur-3"/>
      <feComposite operator="in" in="color"/>
      <feComposite operator="in" in2="SourceGraphic"/>
    </filter>
    <filter id="Rectangle_28" x="231.5" y="92.5" width="90" height="197" filterUnits="userSpaceOnUse">
      <feOffset input="SourceAlpha"/>
      <feGaussianBlur stdDeviation="5.5" result="blur-4"/>
      <feFlood flood-color="#263085"/>
      <feComposite operator="in" in2="blur-4"/>
      <feComposite in="SourceGraphic"/>
    </filter>
    <filter id="Rectangle_18-2" x="12" y="12" width="123" height="299" filterUnits="userSpaceOnUse">
      <feOffset dx="6" dy="6" input="SourceAlpha"/>
      <feGaussianBlur stdDeviation="7" result="blur-5"/>
      <feFlood flood-opacity="0.161"/>
      <feComposite operator="in" in2="blur-5"/>
      <feComposite in="SourceGraphic"/>
    </filter>
    <filter id="Rectangle_20-2" x="0" y="0" width="123" height="299" filterUnits="userSpaceOnUse">
      <feOffset dx="-6" dy="-6" input="SourceAlpha"/>
      <feGaussianBlur stdDeviation="7" result="blur-6"/>
      <feFlood flood-color="#fff"/>
      <feComposite operator="in" in2="blur-6"/>
      <feComposite in="SourceGraphic"/>
    </filter>
    <filter id="Rectangle_19-2">
      <feOffset dx="6" dy="6" input="SourceAlpha"/>
      <feGaussianBlur stdDeviation="7" result="blur-7"/>
      <feFlood flood-opacity="0.161" result="color-2"/>
      <feComposite operator="out" in="SourceGraphic" in2="blur-7"/>
      <feComposite operator="in" in="color-2"/>
      <feComposite operator="in" in2="SourceGraphic"/>
    </filter>
    <filter id="Rectangle_21" x="22.5" y="145.5" width="90" height="144" filterUnits="userSpaceOnUse">
      <feOffset input="SourceAlpha"/>
      <feGaussianBlur stdDeviation="5.5" result="blur-8"/>
      <feFlood flood-color="#b36fa8"/>
      <feComposite operator="in" in2="blur-8"/>
      <feComposite in="SourceGraphic"/>
    </filter>
  </defs>
  <g id="Group_30" data-name="Group 30" transform="translate(15.472 27)">
    <g id="Group_29" data-name="Group 29" transform="translate(220)">
      <g id="Group_23" data-name="Group 23" transform="translate(0 0)">
        <g id="Group_2" data-name="Group 2" transform="translate(0 0)">
          <g transform="matrix(1, 0, 0, 1, -235.47, -27)" filter="url(#Rectangle_18)">
            <rect id="Rectangle_18-3" data-name="Rectangle 18" width="82" height="257" rx="41" transform="translate(235 27)" fill="#e6eaee"/>
          </g>
          <g transform="matrix(1, 0, 0, 1, -235.47, -27)" filter="url(#Rectangle_20)">
            <rect id="Rectangle_20-3" data-name="Rectangle 20" width="82" height="257" rx="41" transform="translate(235 27)" fill="#e6eaee"/>
          </g>
        </g>
        <g data-type="innerShadowGroup">
          <rect id="Rectangle_19-3" data-name="Rectangle 19" width="66" height="243" rx="33" transform="translate(7.528 7)" fill="#fff"/>
          <g transform="matrix(1, 0, 0, 1, -235.47, -27)" filter="url(#Rectangle_19)">
            <rect id="Rectangle_19-4" data-name="Rectangle 19" width="66" height="243" rx="33" transform="translate(243 34)" fill="#fff"/>
          </g>
        </g>
      </g>
      <g transform="matrix(1, 0, 0, 1, -235.47, -27)" filter="url(#Rectangle_28)">
        <rect id="Rectangle_28-2" data-name="Rectangle 28" width="57" height="164" rx="28.5" transform="translate(248 109)" fill="#263085"/>
      </g>
      <text id="Male" transform="translate(40.527 300)" fill="#263085" font-size="29" font-family="Poppins-Medium, Poppins" font-weight="500"><tspan x="-35" y="0">Male</tspan></text>
      <text id="_63_" data-name="63%" transform="translate(40.527 70)" fill="#263085" font-size="19" font-family="Poppins-Light, Poppins" font-weight="300"><tspan x="-18" y="0">63%</tspan></text>
      <path id="Path_74" data-name="Path 74" d="M31.784,8.945a1.476,1.476,0,0,1-1.362,1.032,1.326,1.326,0,0,1-1.36-1.262c-.025-.593,0-1.19,0-1.768L26.7,9.322a21.537,21.537,0,0,1,.935,2.205,8.162,8.162,0,1,1-9.429-5.64A7.914,7.914,0,0,1,24.336,7.1c.252.168.39.172.605-.054.644-.682,1.318-1.335,2.044-2.062-.559,0-1.04.006-1.521,0A1.38,1.38,0,0,1,24.07,3.953a1.345,1.345,0,0,1,1.289-1.7c1.3-.04,2.594-.046,3.89-.066.33,0,.661,0,.99-.009a1.391,1.391,0,0,1,1.468.926.618.618,0,0,0,.078.111Zm-6.531,4.946a5.434,5.434,0,1,0-5.412,5.4,5.358,5.358,0,0,0,5.412-5.4" transform="translate(19.342 212.683)" fill="#fff"/>
    </g>
    <g id="Group_28" data-name="Group 28" transform="translate(0)">
      <g id="Group_3" data-name="Group 3" transform="translate(12 0)">
        <g id="Group_2-2" data-name="Group 2" transform="translate(0 0)">
          <g transform="matrix(1, 0, 0, 1, -27.47, -27)" filter="url(#Rectangle_18-2)">
            <rect id="Rectangle_18-4" data-name="Rectangle 18" width="81" height="257" rx="40.5" transform="translate(27 27)" fill="#e6eaee"/>
          </g>
          <g transform="matrix(1, 0, 0, 1, -27.47, -27)" filter="url(#Rectangle_20-2)">
            <rect id="Rectangle_20-4" data-name="Rectangle 20" width="81" height="257" rx="40.5" transform="translate(27 27)" fill="#e6eaee"/>
          </g>
        </g>
        <g data-type="innerShadowGroup">
          <rect id="Rectangle_19-5" data-name="Rectangle 19" width="66" height="243" rx="33" transform="translate(7.528 7)" fill="#fff"/>
          <g transform="matrix(1, 0, 0, 1, -27.47, -27)" filter="url(#Rectangle_19-2)">
            <rect id="Rectangle_19-6" data-name="Rectangle 19" width="66" height="243" rx="33" transform="translate(35 34)" fill="#fff"/>
          </g>
        </g>
      </g>
      <g transform="matrix(1, 0, 0, 1, -15.47, -27)" filter="url(#Rectangle_21)">
        <rect id="Rectangle_21-2" data-name="Rectangle 21" width="57" height="111" rx="28.5" transform="translate(39 162)" fill="#b36fa8"/>
      </g>
      <text id="Female" transform="translate(51.527 300)" fill="#b36fa8" font-size="28" font-family="Poppins-Medium, Poppins" font-weight="500"><tspan x="-52" y="0">Female</tspan></text>
      <text id="_37_" data-name="37%" transform="translate(51.527 128)" fill="#b36fa8" font-size="19" font-family="Poppins-Light, Poppins" font-weight="300"><tspan x="-17" y="0">37%</tspan></text>
      <path id="Path_75" data-name="Path 75" d="M9.4,21.418c0,.521.006.984,0,1.447a1.372,1.372,0,1,1-2.734-.019c0-.461,0-.923,0-1.429-.757,0-1.474.016-2.192,0A1.355,1.355,0,0,1,3.23,19.6a1.338,1.338,0,0,1,1.259-.9c.707-.013,1.416,0,2.15,0V16.223c-.084-.025-.183-.063-.286-.088a8.191,8.191,0,1,1,3.407.043c-.3.06-.372.169-.364.451.019.67.006,1.341.006,2.059.694,0,1.35,0,2.006,0a2.418,2.418,0,0,1,.617.055,1.36,1.36,0,0,1-.337,2.668c-.745.015-1.489,0-2.286,0M13.6,8.149A5.437,5.437,0,1,0,8.179,13.6,5.432,5.432,0,0,0,13.6,8.149" transform="translate(44 212.724)" fill="#fff"/>
    </g>
  </g>
</svg>
